# xmcd
# 
# Track frame offsets:
#     150
#     45387
#     105881
#     142059
#     186653
#     240075
# 
# Disc length: 3704
# 
# Revision: 0
# Processed by: cddbd v1.5.2PL0 Copyright (c) Steve Scherf et al.
# Submitted via: fre:ac v1.0.17
# 
DISCID=460e7606
DTITLE=Aqours - Aqoursのお泊りプラン～イタリア編～
DYEAR=0
DGENRE=
TTITLE0=問題の別荘！
TTITLE1=イタリア旅行は妄想で♪
TTITLE2=真夜中の恐怖体験
TTITLE3=かりそめ姉妹！
TTITLE4=寝具争奪ババ抜き！
TTITLE5=お泊りプランの朝
EXTD=
EXTT0=
EXTT1=
EXTT2=
EXTT3=
EXTT4=
EXTT5=
PLAYORDER=
